<svg width="26" height="22" viewBox="0 0 26 22" fill="none" xmlns="http://www.w3.org/2000/svg">
<path d="M17.3636 21V18.7778C17.3636 17.599 16.9039 16.4686 16.0856 15.6351C15.2672 14.8016 14.1573 14.3333 13 14.3333H5.36364C4.20633 14.3333 3.09642 14.8016 2.27808 15.6351C1.45974 16.4686 1 17.599 1 18.7778V21M19.5455 6.55556L25 12.1111M25 6.55556L19.5455 12.1111M13.5455 5.44444C13.5455 7.89904 11.5918 9.88889 9.18182 9.88889C6.77185 9.88889 4.81818 7.89904 4.81818 5.44444C4.81818 2.98985 6.77185 1 9.18182 1C11.5918 1 13.5455 2.98985 13.5455 5.44444Z" stroke="#FF6054" stroke-width="2" stroke-linecap="round" stroke-linejoin="round"/>
</svg>
