<svg width="58" height="58" viewBox="0 0 58 58" fill="none" xmlns="http://www.w3.org/2000/svg">
<circle cx="29" cy="29" r="27" fill="#F9FAFF" stroke="#F9FAFF" stroke-opacity="0.15" stroke-width="4"/>
<path d="M42.8 45.2V41.6667C42.8 39.7925 42.0572 37.9951 40.7351 36.6698C39.4129 35.3445 37.6198 34.6 35.75 34.6H21.65C19.7802 34.6 17.987 35.3445 16.6649 36.6698C15.3427 37.9951 14.6 39.7925 14.6 41.6667V45.2M35.75 20.4667C35.75 24.3695 32.5936 27.5334 28.7 27.5334C24.8064 27.5334 21.65 24.3695 21.65 20.4667C21.65 16.5639 24.8064 13.4 28.7 13.4C32.5936 13.4 35.75 16.5639 35.75 20.4667Z" stroke="#0F1021" stroke-width="4" stroke-linecap="round"/>
</svg>
