<svg width="54" height="55" viewBox="0 0 54 55" fill="none" xmlns="http://www.w3.org/2000/svg">
<path fill-rule="evenodd" clip-rule="evenodd" d="M51.8186 9.0954C51.9758 9.25506 52.1005 9.44472 52.1856 9.65354C52.2706 9.86235 52.3144 10.0862 52.3144 10.3123C52.3144 10.5384 52.2706 10.7622 52.1856 10.971C52.1005 11.1798 51.9758 11.3695 51.8186 11.5292L28.1936 35.5917C28.0369 35.7517 27.8507 35.8787 27.6457 35.9653C27.4406 36.052 27.2209 36.0966 26.9989 36.0966C26.7769 36.0966 26.5571 36.052 26.3521 35.9653C26.1471 35.8787 25.9609 35.7517 25.8041 35.5917L15.6791 25.2792C15.5223 25.1193 15.3978 24.9296 15.3129 24.7208C15.228 24.5121 15.1843 24.2883 15.1843 24.0623C15.1843 23.8363 15.228 23.6125 15.3129 23.4037C15.3978 23.1949 15.5223 23.0052 15.6791 22.8454C15.836 22.6856 16.0223 22.5588 16.2273 22.4724C16.4323 22.3859 16.652 22.3414 16.8739 22.3414C17.0958 22.3414 17.3155 22.3859 17.5205 22.4724C17.7255 22.5588 17.9118 22.6856 18.0686 22.8454L26.9989 31.9445L49.4291 9.0954C49.5859 8.93534 49.7721 8.80835 49.9771 8.7217C50.1821 8.63506 50.4019 8.59045 50.6239 8.59045C50.8459 8.59045 51.0656 8.63506 51.2707 8.7217C51.4757 8.80835 51.6619 8.93534 51.8186 9.0954Z" fill="#F9FAFF"/>
<path fill-rule="evenodd" clip-rule="evenodd" d="M27 8.59409C23.3287 8.59409 19.7398 9.70292 16.6873 11.7804C13.6347 13.8578 11.2555 16.8106 9.85052 20.2652C8.44557 23.7199 8.07797 27.5213 8.7942 31.1888C9.51044 34.8562 11.2783 38.225 13.8744 40.8691C16.4704 43.5132 19.7779 45.3138 23.3787 46.0433C26.9794 46.7728 30.7117 46.3984 34.1036 44.9674C37.4954 43.5365 40.3945 41.1132 42.4342 38.0041C44.4739 34.895 45.5625 31.2396 45.5625 27.5003C45.5625 27.0445 45.7403 26.6073 46.0568 26.285C46.3733 25.9627 46.8025 25.7816 47.25 25.7816C47.6976 25.7816 48.1268 25.9627 48.4433 26.285C48.7597 26.6073 48.9375 27.0445 48.9375 27.5003C48.9369 32.4188 47.3429 37.1997 44.4027 41.1015C41.4625 45.0032 37.3405 47.8079 32.6758 49.0804C28.0112 50.353 23.0646 50.0223 18.6033 48.1397C14.142 46.2571 10.4152 42.9278 8.00089 38.6681C5.58663 34.4084 4.6198 29.4563 5.25035 24.58C5.8809 19.7036 8.07359 15.1753 11.4884 11.6975C14.9032 8.21975 19.3492 5.98674 24.137 5.34483C28.9247 4.70291 33.7867 5.68796 37.9688 8.14721C38.1704 8.25466 38.3487 8.40255 38.4928 8.58197C38.6369 8.7614 38.7439 8.96866 38.8073 9.19129C38.8707 9.41392 38.8892 9.64731 38.8618 9.87742C38.8343 10.1075 38.7615 10.3296 38.6476 10.5303C38.5337 10.731 38.3811 10.9061 38.199 11.0452C38.0169 11.1843 37.8091 11.2844 37.5881 11.3396C37.367 11.3947 37.1373 11.4038 36.9127 11.3661C36.6881 11.3285 36.4734 11.245 36.2813 11.1206C33.4605 9.45927 30.2584 8.58759 27 8.59409Z" fill="#F9FAFF"/>
</svg>
