<svg width="57" height="54" viewBox="0 0 57 54" fill="none" xmlns="http://www.w3.org/2000/svg">
<g clip-path="url(#clip0_211_1892)">
<path fill-rule="evenodd" clip-rule="evenodd" d="M0 27C0 25.2098 0.750668 23.4929 2.08686 22.227C3.42306 20.9612 5.23533 20.25 7.125 20.25H33.8438C35.5719 20.2498 37.2412 20.8447 38.5408 21.9238C39.8405 23.0029 40.6818 24.4927 40.9082 26.1157L51.9876 21.4515C52.5299 21.2226 53.124 21.1257 53.7159 21.1696C54.3078 21.2136 54.8787 21.397 55.3767 21.7031C55.8747 22.0093 56.2841 22.4286 56.5676 22.9227C56.8511 23.4169 56.9997 23.9704 57 24.5329V49.7171C56.9995 50.2791 56.8508 50.8321 56.5675 51.3259C56.2842 51.8197 55.8752 52.2387 55.3777 52.5448C54.8801 52.8508 54.3098 53.0344 53.7184 53.0787C53.127 53.123 52.5333 53.0267 51.9911 52.7985L40.9082 48.1343C40.6818 49.7573 39.8405 51.2471 38.5408 52.3262C37.2412 53.4053 35.5719 54.0002 33.8438 54H7.125C5.23533 54 3.42306 53.2888 2.08686 52.023C0.750668 50.7571 0 49.0402 0 47.25V27ZM40.9688 44.4656L53.4375 49.7171V24.5329L40.9688 29.7844V44.4656ZM7.125 23.625C6.18017 23.625 5.27403 23.9806 4.60593 24.6135C3.93783 25.2465 3.5625 26.1049 3.5625 27V47.25C3.5625 48.1451 3.93783 49.0035 4.60593 49.6365C5.27403 50.2694 6.18017 50.625 7.125 50.625H33.8438C34.7886 50.625 35.6947 50.2694 36.3628 49.6365C37.0309 49.0035 37.4062 48.1451 37.4062 47.25V27C37.4062 26.1049 37.0309 25.2465 36.3628 24.6135C35.6947 23.9806 34.7886 23.625 33.8438 23.625H7.125Z" fill="#F9FAFF"/>
<path fill-rule="evenodd" clip-rule="evenodd" d="M10.6875 16.875C12.5772 16.875 14.3894 16.1638 15.7256 14.898C17.0618 13.6321 17.8125 11.9152 17.8125 10.125C17.8125 8.33479 17.0618 6.6179 15.7256 5.35203C14.3894 4.08616 12.5772 3.375 10.6875 3.375C8.79783 3.375 6.98556 4.08616 5.64936 5.35203C4.31317 6.6179 3.5625 8.33479 3.5625 10.125C3.5625 11.9152 4.31317 13.6321 5.64936 14.898C6.98556 16.1638 8.79783 16.875 10.6875 16.875ZM10.6875 20.25C13.522 20.25 16.2404 19.1833 18.2447 17.2845C20.249 15.3856 21.375 12.8103 21.375 10.125C21.375 7.43968 20.249 4.86435 18.2447 2.96554C16.2404 1.06674 13.522 0 10.6875 0C7.853 0 5.13459 1.06674 3.1303 2.96554C1.126 4.86435 0 7.43968 0 10.125C0 12.8103 1.126 15.3856 3.1303 17.2845C5.13459 19.1833 7.853 20.25 10.6875 20.25Z" fill="#F9FAFF"/>
<path fill-rule="evenodd" clip-rule="evenodd" d="M32.0625 16.875C33.9522 16.875 35.7644 16.1638 37.1006 14.898C38.4368 13.6321 39.1875 11.9152 39.1875 10.125C39.1875 8.33479 38.4368 6.6179 37.1006 5.35203C35.7644 4.08616 33.9522 3.375 32.0625 3.375C30.1728 3.375 28.3606 4.08616 27.0244 5.35203C25.6882 6.6179 24.9375 8.33479 24.9375 10.125C24.9375 11.9152 25.6882 13.6321 27.0244 14.898C28.3606 16.1638 30.1728 16.875 32.0625 16.875ZM32.0625 20.25C34.897 20.25 37.6154 19.1833 39.6197 17.2845C41.624 15.3856 42.75 12.8103 42.75 10.125C42.75 7.43968 41.624 4.86435 39.6197 2.96554C37.6154 1.06674 34.897 0 32.0625 0C29.228 0 26.5096 1.06674 24.5053 2.96554C22.501 4.86435 21.375 7.43968 21.375 10.125C21.375 12.8103 22.501 15.3856 24.5053 17.2845C26.5096 19.1833 29.228 20.25 32.0625 20.25Z" fill="#F9FAFF"/>
</g>
<defs>
<clipPath id="clip0_211_1892">
<rect width="57" height="54" fill="white"/>
</clipPath>
</defs>
</svg>
