<svg width="57" height="57" viewBox="0 0 57 57" fill="none" xmlns="http://www.w3.org/2000/svg">
<path fill-rule="evenodd" clip-rule="evenodd" d="M53.4375 49.875C53.4375 49.875 57 49.875 57 46.3125C57 42.75 53.4375 32.0625 39.1875 32.0625C24.9375 32.0625 21.375 42.75 21.375 46.3125C21.375 49.875 24.9375 49.875 24.9375 49.875H53.4375ZM25.0159 46.3125H53.3591C53.3758 46.3106 53.3924 46.3082 53.409 46.3054L53.4375 46.2983C53.4304 45.3577 52.8426 42.6289 50.73 40.1707C48.7635 37.8658 45.3079 35.625 39.1875 35.625C33.0707 35.625 29.6151 37.8694 27.645 40.1707C25.5324 42.6289 24.9411 45.3613 24.9375 46.2983C24.9636 46.3033 24.9897 46.308 25.0159 46.3125ZM39.1875 24.9375C41.0772 24.9375 42.8894 24.1868 44.2256 22.8506C45.5618 21.5144 46.3125 19.7022 46.3125 17.8125C46.3125 15.9228 45.5618 14.1106 44.2256 12.7744C42.8894 11.4382 41.0772 10.6875 39.1875 10.6875C37.2978 10.6875 35.4856 11.4382 34.1494 12.7744C32.8132 14.1106 32.0625 15.9228 32.0625 17.8125C32.0625 19.7022 32.8132 21.5144 34.1494 22.8506C35.4856 24.1868 37.2978 24.9375 39.1875 24.9375ZM49.875 17.8125C49.875 19.216 49.5986 20.6058 49.0615 21.9024C48.5244 23.1991 47.7371 24.3773 46.7447 25.3697C45.7523 26.3621 44.5741 27.1494 43.2774 27.6865C41.9808 28.2236 40.591 28.5 39.1875 28.5C37.784 28.5 36.3942 28.2236 35.0976 27.6865C33.8009 27.1494 32.6227 26.3621 31.6303 25.3697C30.6379 24.3773 29.8506 23.1991 29.3135 21.9024C28.7764 20.6058 28.5 19.216 28.5 17.8125C28.5 14.978 29.626 12.2596 31.6303 10.2553C33.6346 8.251 36.353 7.125 39.1875 7.125C42.022 7.125 44.7404 8.251 46.7447 10.2553C48.749 12.2596 49.875 14.978 49.875 17.8125ZM24.7095 33.06C23.2844 32.6113 21.8155 32.3163 20.3276 32.1801C19.4916 32.1006 18.6523 32.0613 17.8125 32.0625C3.5625 32.0625 0 42.75 0 46.3125C0 48.6887 1.18631 49.875 3.5625 49.875H18.582C18.0539 48.7628 17.7905 47.5435 17.8125 46.3125C17.8125 42.7144 19.1556 39.0379 21.6956 35.967C22.5613 34.9196 23.5695 33.9399 24.7095 33.06ZM17.5275 35.625C11.5852 35.6963 8.21156 37.905 6.27 40.1707C4.14319 42.6431 3.5625 45.3827 3.5625 46.3125H14.25C14.25 42.5897 15.4007 38.8811 17.5275 35.625ZM5.34375 19.5938C5.34375 16.7592 6.46975 14.0408 8.47405 12.0365C10.4783 10.0323 13.1967 8.90625 16.0312 8.90625C18.8658 8.90625 21.5842 10.0323 23.5885 12.0365C25.5927 14.0408 26.7188 16.7592 26.7188 19.5938C26.7188 22.4283 25.5927 25.1467 23.5885 27.151C21.5842 29.1552 18.8658 30.2812 16.0312 30.2812C13.1967 30.2812 10.4783 29.1552 8.47405 27.151C6.46975 25.1467 5.34375 22.4283 5.34375 19.5938ZM16.0312 12.4688C14.1416 12.4688 12.3293 13.2194 10.9931 14.5556C9.65692 15.8918 8.90625 17.7041 8.90625 19.5938C8.90625 21.4834 9.65692 23.2957 10.9931 24.6319C12.3293 25.9681 14.1416 26.7188 16.0312 26.7188C17.9209 26.7188 19.7332 25.9681 21.0694 24.6319C22.4056 23.2957 23.1562 21.4834 23.1562 19.5938C23.1562 17.7041 22.4056 15.8918 21.0694 14.5556C19.7332 13.2194 17.9209 12.4688 16.0312 12.4688Z" fill="#F9FAFF"/>
</svg>
