<svg width="52" height="58" viewBox="0 0 52 58" fill="none" xmlns="http://www.w3.org/2000/svg">
<g clip-path="url(#clip0_210_1769)">
<path fill-rule="evenodd" clip-rule="evenodd" d="M43.4545 49.2945C43.5973 49.1488 43.7668 49.0333 43.9534 48.9545C44.1401 48.8757 44.3401 48.8351 44.5421 48.8351C44.7441 48.8351 44.9441 48.8757 45.1307 48.9545C45.3173 49.0333 45.4869 49.1488 45.6296 49.2945L51.5477 55.325C51.8361 55.6187 51.9983 56.0171 51.9984 56.4326C51.9985 56.8481 51.8367 57.2467 51.5485 57.5406C51.2602 57.8345 50.8692 57.9997 50.4615 57.9998C50.0537 58 49.6626 57.8351 49.3742 57.5413L43.4561 51.5109C43.3132 51.3654 43.1998 51.1926 43.1224 51.0025C43.0451 50.8123 43.0052 50.6085 43.0052 50.4027C43.0052 50.1968 43.0451 49.993 43.1224 49.8029C43.1998 49.6127 43.3132 49.4399 43.4561 49.2945H43.4545Z" fill="#F9FAFF"/>
<path fill-rule="evenodd" clip-rule="evenodd" d="M37.3969 51.7345C38.5072 51.7345 39.6066 51.5117 40.6323 51.0788C41.658 50.6458 42.59 50.0112 43.3751 49.2113C44.1602 48.4113 44.7829 47.4616 45.2078 46.4164C45.6327 45.3711 45.8513 44.2509 45.8513 43.1196C45.8513 41.9882 45.6327 40.868 45.2078 39.8228C44.7829 38.7775 44.1602 37.8278 43.3751 37.0279C42.59 36.2279 41.658 35.5933 40.6323 35.1604C39.6066 34.7274 38.5072 34.5046 37.3969 34.5046C35.1547 34.5046 33.0043 35.4122 31.4188 37.0279C29.8333 38.6435 28.9426 40.8347 28.9426 43.1196C28.9426 45.4044 29.8333 47.5956 31.4188 49.2113C33.0043 50.8269 35.1547 51.7345 37.3969 51.7345ZM47.3885 43.1196C47.3885 45.8198 46.3358 48.4095 44.462 50.3188C42.5883 52.2282 40.0469 53.3009 37.3969 53.3009C34.747 53.3009 32.2056 52.2282 30.3319 50.3188C28.4581 48.4095 27.4054 45.8198 27.4054 43.1196C27.4054 40.4193 28.4581 37.8296 30.3319 35.9203C32.2056 34.0109 34.747 32.9382 37.3969 32.9382C40.0469 32.9382 42.5883 34.0109 44.462 35.9203C46.3358 37.8296 47.3885 40.4193 47.3885 43.1196Z" fill="#F9FAFF"/>
</g>
<g clip-path="url(#clip1_210_1769)">
<path fill-rule="evenodd" clip-rule="evenodd" d="M43.5676 43.321C43.5676 43.321 41.3277 39.1366 37.5946 39.1366C33.8615 39.1366 31.6216 43.321 31.6216 43.321C31.6216 43.321 33.8615 47.5054 37.5946 47.5054C41.3277 47.5054 43.5676 43.321 43.5676 43.321ZM32.4974 43.321C32.8584 43.8801 33.2737 44.4008 33.7368 44.8753C34.6977 45.856 36.0118 46.7446 37.5946 46.7446C39.1775 46.7446 40.4908 45.856 41.4532 44.8753C41.9163 44.4008 42.3315 43.8801 42.6925 43.321C42.3315 42.7619 41.9163 42.2412 41.4532 41.7667C40.4908 40.786 39.1767 39.8974 37.5946 39.8974C36.0118 39.8974 34.6985 40.786 33.7361 41.7667C33.2729 42.2412 32.8577 42.7619 32.4967 43.321H32.4974Z" fill="#F9FAFF"/>
<path fill-rule="evenodd" clip-rule="evenodd" d="M37.5946 41.419C37.0996 41.419 36.6248 41.6194 36.2748 41.9761C35.9247 42.3328 35.7281 42.8166 35.7281 43.321C35.7281 43.8255 35.9247 44.3092 36.2748 44.6659C36.6248 45.0226 37.0996 45.223 37.5946 45.223C38.0897 45.223 38.5644 45.0226 38.9145 44.6659C39.2645 44.3092 39.4612 43.8255 39.4612 43.321C39.4612 42.8166 39.2645 42.3328 38.9145 41.9761C38.5644 41.6194 38.0897 41.419 37.5946 41.419ZM34.9814 43.321C34.9814 42.6148 35.2568 41.9375 35.7468 41.4381C36.2369 40.9387 36.9016 40.6582 37.5946 40.6582C38.2877 40.6582 38.9523 40.9387 39.4424 41.4381C39.9325 41.9375 40.2078 42.6148 40.2078 43.321C40.2078 44.0272 39.9325 44.7045 39.4424 45.2039C38.9523 45.7033 38.2877 45.9838 37.5946 45.9838C36.9016 45.9838 36.2369 45.7033 35.7468 45.2039C35.2568 44.7045 34.9814 44.0272 34.9814 43.321Z" fill="#F9FAFF"/>
</g>
<g clip-path="url(#clip2_210_1769)">
<path d="M30.4578 0H12.8243C11.1237 0 9.49276 0.688397 8.29025 1.91375C7.08774 3.1391 6.41217 4.80104 6.41217 6.53395V45.7377C6.41217 47.4706 7.08774 49.1325 8.29025 50.3579C9.49276 51.5832 11.1237 52.2716 12.8243 52.2716H34.4324L29.8649 49.0046H12.8243C11.974 49.0046 11.1585 48.6604 10.5573 48.0478C9.95603 47.4351 9.61825 46.6041 9.61825 45.7377V6.53395C9.61825 5.66749 9.95603 4.83653 10.5573 4.22385C11.1585 3.61117 11.974 3.26698 12.8243 3.26698H30.4578V0Z" fill="#F9FAFF"/>
<path d="M41.6791 14.7014V34.3704L44.8851 37.2346V14.7014H41.6791Z" fill="#F9FAFF"/>
<path d="M30.4578 9.80093V0L44.8851 14.7014H35.2669C33.9914 14.7014 32.7682 14.1851 31.8663 13.2661C30.9644 12.3471 30.4578 11.1006 30.4578 9.80093Z" fill="#F9FAFF"/>
<path fill-rule="evenodd" clip-rule="evenodd" d="M16.0304 33.3187C16.0304 32.8855 16.1993 32.47 16.4999 32.1636C16.8005 31.8573 17.2083 31.6852 17.6334 31.6852H24.0456C24.4708 31.6852 24.8785 31.8573 25.1791 32.1636C25.4797 32.47 25.6486 32.8855 25.6486 33.3187C25.6486 33.7519 25.4797 34.1674 25.1791 34.4737C24.8785 34.7801 24.4708 34.9522 24.0456 34.9522H17.6334C17.2083 34.9522 16.8005 34.7801 16.4999 34.4737C16.1993 34.1674 16.0304 33.7519 16.0304 33.3187ZM16.0304 26.7847C16.0304 26.3515 16.1993 25.936 16.4999 25.6297C16.8005 25.3234 17.2083 25.1513 17.6334 25.1513H33.6638C34.089 25.1513 34.4967 25.3234 34.7974 25.6297C35.098 25.936 35.2669 26.3515 35.2669 26.7847C35.2669 27.218 35.098 27.6335 34.7974 27.9398C34.4967 28.2461 34.089 28.4182 33.6638 28.4182H17.6334C17.2083 28.4182 16.8005 28.2461 16.4999 27.9398C16.1993 27.6335 16.0304 27.218 16.0304 26.7847ZM16.0304 20.2508C16.0304 19.8176 16.1993 19.4021 16.4999 19.0957C16.8005 18.7894 17.2083 18.6173 17.6334 18.6173H33.6638C34.089 18.6173 34.4967 18.7894 34.7974 19.0957C35.098 19.4021 35.2669 19.8176 35.2669 20.2508C35.2669 20.684 35.098 21.0995 34.7974 21.4058C34.4967 21.7122 34.089 21.8843 33.6638 21.8843H17.6334C17.2083 21.8843 16.8005 21.7122 16.4999 21.4058C16.1993 21.0995 16.0304 20.684 16.0304 20.2508Z" fill="#F9FAFF"/>
</g>
<defs>
<clipPath id="clip0_210_1769">
<rect width="24.5946" height="25.0617" fill="white" transform="translate(27.4054 32.9382)"/>
</clipPath>
<clipPath id="clip1_210_1769">
<rect width="11.9459" height="12.1728" fill="white" transform="translate(31.6216 37.2346)"/>
</clipPath>
<clipPath id="clip2_210_1769">
<rect width="51.2973" height="52.2716" fill="white"/>
</clipPath>
</defs>
</svg>
