<svg width="41" height="54" viewBox="0 0 41 54" fill="none" xmlns="http://www.w3.org/2000/svg">
<path d="M20.2921 41.8445L2 52V2H39L38.5843 52L20.2921 41.8445Z" stroke="#0F1021" stroke-width="4" stroke-linejoin="round"/>
<path d="M20.5 32.9524L19.1588 31.7717C17.6017 30.3942 16.3144 29.2058 15.2969 28.2067C14.2794 27.2077 13.47 26.3145 12.8688 25.5274C12.2675 24.7251 11.8435 23.9909 11.5969 23.3248C11.3656 22.6588 11.25 21.9776 11.25 21.2812C11.25 19.8583 11.7356 18.67 12.7069 17.7163C13.6781 16.7626 14.8883 16.2858 16.3375 16.2858C17.1392 16.2858 17.9023 16.4523 18.6269 16.7853C19.3515 17.1183 19.9758 17.5876 20.5 18.1931C21.0242 17.5876 21.6485 17.1183 22.3731 16.7853C23.0977 16.4523 23.8608 16.2858 24.6625 16.2858C26.1117 16.2858 27.3219 16.7626 28.2931 17.7163C29.2644 18.67 29.75 19.8583 29.75 21.2812C29.75 21.9776 29.6267 22.6588 29.38 23.3248C29.1488 23.9909 28.7325 24.7251 28.1313 25.5274C27.53 26.3145 26.7206 27.2077 25.7031 28.2067C24.6856 29.2058 23.3983 30.3942 21.8413 31.7717L20.5 32.9524Z" fill="#0F1021"/>
</svg>
