<svg width="38" height="38" viewBox="0 0 38 38" fill="none" xmlns="http://www.w3.org/2000/svg">
<path d="M28.625 9.375H28.6425M10.25 1.5H27.75C32.5825 1.5 36.5 5.41751 36.5 10.25V27.75C36.5 32.5825 32.5825 36.5 27.75 36.5H10.25C5.41751 36.5 1.5 32.5825 1.5 27.75V10.25C1.5 5.41751 5.41751 1.5 10.25 1.5ZM26 17.8975C26.216 19.3539 25.9672 20.8414 25.2891 22.1483C24.611 23.4552 23.538 24.515 22.2228 25.1769C20.9077 25.8389 19.4173 26.0693 17.9636 25.8354C16.51 25.6015 15.1671 24.9151 14.126 23.874C13.0849 22.8329 12.3985 21.49 12.1646 20.0364C11.9307 18.5827 12.1611 17.0923 12.8231 15.7772C13.485 14.462 14.5448 13.389 15.8517 12.7109C17.1586 12.0328 18.6461 11.784 20.1025 12C21.5881 12.2203 22.9635 12.9126 24.0255 13.9745C25.0874 15.0365 25.7797 16.4119 26 17.8975Z" stroke="#F9FAFF" stroke-width="3" stroke-linecap="round" stroke-linejoin="round"/>
</svg>
