<svg width="42" height="35" viewBox="0 0 42 35" fill="none" xmlns="http://www.w3.org/2000/svg">
<path d="M42 0.0196141C40.1718 1.33716 38.1477 2.34488 36.0055 3.00395C34.8557 1.65322 33.3276 0.695853 31.628 0.261338C29.9283 -0.173177 28.139 -0.0638778 26.5022 0.574454C24.8653 1.21279 23.4598 2.34935 22.4757 3.83043C21.4916 5.31151 20.9765 7.06565 21 8.85559V10.8061C17.645 10.895 14.3206 10.1348 11.3228 8.59314C8.32506 7.05149 5.74697 4.77629 3.81818 1.97016C3.81818 1.97016 -3.81818 19.5251 13.3636 27.3273C9.43192 30.0541 4.74821 31.4213 0 31.2284C17.1818 40.9811 38.1818 31.2284 38.1818 8.79708C38.1801 8.25376 38.1289 7.71178 38.0291 7.17812C39.9775 5.21488 41.3525 2.73617 42 0.0196141Z" fill="#F9FAFF"/>
</svg>
